<svg xmlns="http://www.w3.org/2000/svg" viewBox="0 0 45 37">
    <g fill="#2980BA" fill-rule="evenodd">
        <path d="M3.224 6.54H41.72c1.535 0 2.763-1.3 2.763-2.922 0-1.623-1.228-2.92-2.763-2.92H3.224C1.69.697.46 1.994.46 3.617s1.23 2.92 2.764 2.92zM41.723 15.855h-38.5c-1.534 0-2.762 1.298-2.762 2.92 0 1.624 1.23 2.922 2.764 2.922H41.72c1.535 0 2.763-1.298 2.763-2.92 0-1.624-1.225-2.922-2.76-2.922zM41.723 31.013h-38.5c-1.534 0-2.762 1.3-2.762 2.92 0 1.624 1.23 2.922 2.764 2.922H41.72c1.535 0 2.763-1.298 2.763-2.92 0-1.623-1.225-2.922-2.76-2.922z"/>
    </g>
</svg>
