<svg xmlns="http://www.w3.org/2000/svg" viewBox="0 0 502.33796 113.81378">
    <path d="M133.64146 99.71228c-14.331 0-24.585-6.8555-24.93652-16.67a3.45734 3.45734 0 0 1 .98652-2.539 3.7261 3.7261 0 0 1 2.68048-1.133 3.66617 3.66617 0 0 1 3.623 3.433c.56652 5.0145 5.503 10.366 17.64652 10.366 10.22 0 16.3235-3.574 16.3235-9.5655v-.6735c0-5.8695-5.8495-7.5735-15.288-8.423-10.4835-.918-24.419-3.457-24.419-14.8585v-1.6405c0-9.5265 8.5495-15.4395 22.31452-15.4395 7.954 0 14.575 2.3485 18.652 6.6065a14.89043 14.89043 0 0 1 4.219 11.0255 3.51472 3.51472 0 0 1-3.457 3.457 3.46 3.46 0 0 1-3.4865-3.2425c0-5.156-2.7635-11.2985-15.9275-11.2985-9.9075 0-15.36152 3.2275-15.36152 9.0865v.6645c0 6.5965 7.98852 8.2275 16.616 8.999 11.4115 1.035 23.0715 3.525 23.0715 14.1895v1.9285c0 7.827-7.19246 15.7275-23.257 15.7275zM406.098 98.35478a3.4912 3.4912 0 0 1-3.462-3.667v-30.6835c0-9.3505-5.933-14.497-16.709-14.497-10.8645 0-16.846 5.1465-16.846 14.497v30.713a3.44334 3.44334 0 1 1-6.8795.3025l-.015-32.192c0-12.256 9.097-19.8735 23.7405-19.8735 14.585 0 23.6425 7.6175 23.6425 19.8735v32.246a3.66252 3.66252 0 0 1-3.4715 3.281z" class="cls-1"/>
    <circle cx="341.65321" cy="33.58928" r="4.4555" class="cls-1"/>
    <path d="M278.388 98.36478a3.4709 3.4709 0 0 1-3.462-3.472l.029-34.0865c0-12.178 6.802-17.852 21.4115-17.852.8495 0 1.65.01 2.578.049a3.39743 3.39743 0 0 1 3.418 3.2715 3.34655 3.34655 0 0 1-3.3985 3.2815c-.674-.02-1.9045-.049-2.5975-.049-10.6985 0-14.4925 3.2615-14.4925 12.461l-.195 33.252a3.15967 3.15967 0 0 1-3.291 3.1445zM315.634 98.36478a3.53536 3.53536 0 0 1-3.4425-3.3545v-65.8495a3.43628 3.43628 0 0 1 3.4425-3.584 3.544 3.544 0 0 1 3.4715 3.4375v66.0545a3.5225 3.5225 0 0 1-3.4715 3.296zM341.68846 98.35478a3.51544 3.51544 0 0 1-3.4715-3.462v-48.3005a3.481 3.481 0 0 1 3.4715-3.4815 3.58 3.58 0 0 1 3.462 3.4275v48.3545a3.5105 3.5105 0 0 1-3.462 3.462zM446.84 113.81378c-13.633 0-21.67-3.75-23.2375-10.835-.127-.571-.576-3.4715 2.998-4.297a2.90292 2.90292 0 0 1 .635-.073c1.5915 0 2.4755 1.455 3.003 2.5535.8155 1.8605 2.671 6.099 16.6015 6.099 11.157 0 16.8165-4.1945 16.8165-12.466v-6.1815a29.41274 29.41274 0 0 1-18.838 6.46c-14.5605 0-22.578-6.719-22.578-18.9115v-13.3345c0-12.256 9.321-19.8735 24.331-19.8735 8.569 0 15.3125 2.461 19.497 7.1095a7.72627 7.72627 0 0 1 6.924-6.0545h.024a3.56622 3.56622 0 0 1 3.6625 3.125c.122 1.5915-.923 2.8855-2.935 3.6425-2.8855 1.084-3.3345 3.6085-3.2225 10.6445.0295.449.0735 33.1395.078 34.5315-.00004 11.1815-8.8815 17.861-23.7595 17.861zm-.2685-64.3065c-11.377 0-17.388 5.0095-17.388 14.497v10.8985c0 9.5605 4.6485 13.6375 15.5375 13.6375 8.037 0 15.4785-3.779 18.989-7.29l-.0535-17.246c-.00004-9.619-5.74704-14.497-17.08504-14.497zM231.60046 99.32178c-14.7555 0-22.8855-5.791-22.8855-16.299 0-10.7765 7.7345-16.0155 23.6375-16.0155a83.16128 83.16128 0 0 1 18.003 2.3145l-.2245-7.4515c0-8.667-4.9415-12.363-16.5185-12.363-11.3625 0-16.431 2.998-16.431 9.712a4.3495 4.3495 0 0 1-.981 3.3155 3.1271 3.1271 0 0 1-2.344.8835 3.222 3.222 0 0 1-3.34-3.32c0-1.6945.0395-2.046.0395-2.046 0-9.4435 8.618-15.098 23.0565-15.098 15.3465 0 23.462 6.0355 23.462 17.461-.005.879-.059 21.553-.088 22.0605-.078 6.3965.3025 9.014 4.4675 9.1895a3.30218 3.30218 0 0 1 3.1645 3.374 3.36654 3.36654 0 0 1-3.3305 3.3155c-4.7265 0-7.407-1.787-8.9695-5.9765-4.087 4.5605-11.35746 6.9435-20.718 6.9435zm-.703-26.0645c-10.625 0-15.156 2.92-15.156 9.7655 0 8.9845 11.206 9.951 16.025 9.951 12.1875 0 18.3645-4.487 18.3645-13.3395v-4.248a95.51033 95.51033 0 0 0-19.2335-2.129zM195.8963 93.3239c-.07616.00733-7.79052.5884-12.2451-3.51513-2.1836-2.0122-3.24513-4.84033-3.24513-8.647V50.5954h14.4834a3.3501 3.3501 0 1 0 0-6.7002h-14.4834V32.1203a3.3501 3.3501 0 1 0-6.7002 0v11.7749h-6.4834a3.3501 3.3501 0 1 0 0 6.7002h6.4834v30.5664c0 5.72314 1.83105 10.30127 5.44238 13.6084 5.14844 4.71387 12.4414 5.28662 15.68018 5.28613.94775 0 1.54883-.04883 1.647-.05762a3.35 3.35 0 0 0-.5791-6.6748zM484.374 45.00028h-3.115a.56454.56454 0 0 1-.5665-.5565.57962.57962 0 0 1 .5665-.5665h7.456a.58313.58313 0 0 1 .5665.5665.5678.5678 0 0 1-.5665.5565h-3.1155v9.0725a.61276.61276 0 1 1-1.2255 0zM492.06446 44.42928a.61.61 0 0 1 .6005-.601h.132a.67887.67887 0 0 1 .5715.3225l3.828 5.7665 3.833-5.7665a.67026.67026 0 0 1 .5665-.3225h.1415a.61685.61685 0 0 1 .6005.601v9.6435a.613.613 0 0 1-.6005.615.6245.6245 0 0 1-.6105-.615v-7.998l-3.4375 5.039a.58252.58252 0 0 1-.508.3075.6288.6288 0 0 1-.522-.3075l-3.4135-5.0295v8.008a.5947.5947 0 0 1-.5955.5955.5836.5836 0 0 1-.586-.5955zM77.24046 35.76678c-4.219-.205-4.8245-4.326-4.3995-9.985 1.006-13.3155-.5275-16.099-1.46-18.9115-.464-1.4205-1.0695-2.275-1.8995-2.1725-.996.117-1.079 1.1765-.9865 1.88a58.39217 58.39217 0 0 1 .6935 14.9365c-.078.7175-.117 2.4265-1.1425 2.3535-.9275-.0635-.879-.8545-.747-2.046.952-10.3125-.635-17.168-1.294-19.507-.41-1.45-.9375-2.5245-2.0215-2.28a1.50816 1.50816 0 0 0-1.206 1.9725c.7175 4.7755 1.748 12.9395 1.5285 18.613-.098 1.851-.4055 2.764-1.177 2.7345-.8445-.034-.7765-.986-.7765-1.748.0685-10.5615-.2245-14.3165-.8105-16.709-.4785-1.963-.9275-2.5-1.9385-2.2755-.7175.1615-1.128.85-1.04 2.2265.1415 2.6905 1.201 9.7315.3955 17.583-.0535.435-.332 1.2845-1.045 1.2745-.664-.0095-.747-.8105-.7125-1.3375a105.67978 105.67978 0 0 0 .078-15.054c-.2005-1.4795-.4935-2.124-1.5285-2.0655-.7715.049-1.0935.8695-1.1425 1.7775-.1025 3.1445-1.367 18.1545-1.3575 20.166.176 12.9445 8.7795 13.545 13.2815 13.9015 7.1775.5905 14.6435.903 17.7735.625a.6263.6263 0 0 0 .576-.845c-.4395-1.621-2.0215-4.834-7.6415-5.1075zM67.968 74.74178c-1.1135-4.0725 2.612-5.928 8.125-7.2855 12.9685-3.1735 15.1465-5.488 17.5195-7.2555 1.211-.8695 1.836-1.714 1.4845-2.471-.42-.918-1.4555-.669-2.095-.3565a58.5133 58.5133 0 0 1-13.989 5.288c-.7035.1515-2.334.645-2.588-.3515-.2245-.903.537-1.1035 1.704-1.3475 10.117-2.285 16.128-5.9275 18.1545-7.285 1.25-.835 2.1045-1.67 1.538-2.627a1.50507 1.50507 0 0 0-2.246-.5275c-4.3115 2.1585-11.768 5.669-17.222 7.2215-1.792.4835-2.754.474-2.9685-.2685-.2295-.8105.703-1.0495 1.421-1.284 10.063-3.208 13.5445-4.6535 15.6345-5.952 1.719-1.055 2.095-1.6555 1.5675-2.549-.376-.63-1.162-.8005-2.4415-.298-2.5145.972-8.8865 4.165-16.5965 5.835-.425.083-1.3235.0785-1.5385-.6005-.19-.6345.5325-.9665 1.055-1.0985a104.64653 104.64653 0 0 0 14.336-4.59c1.3425-.6495 1.865-1.1325 1.494-2.09-.288-.7225-1.172-.771-2.046-.532-3.027.874-17.6855 4.326-19.5945 4.961-12.251 4.1795-10.1515 12.544-9.097 16.9385 1.67 7.002 3.682 14.199 4.922 17.09a.62174.62174 0 0 0 .9765.283c1.41596-.918 3.9745-3.418 2.4905-8.8475zM27.82146 77.88128c3.54-2.3 6.4355.698 9.404 5.542 6.958 11.3965 9.8245 12.7585 12.2265 14.492 1.2015.8935 2.1875 1.2255 2.808.664.742-.6835.1905-1.5865-.303-2.1045a58.2844 58.2844 0 0 1-9.2725-11.7235c-.361-.625-1.328-2.036-.459-2.573.796-.4935 1.221.1755 1.807 1.2155 5.244 8.9455 10.537 13.5695 12.441 15.088 1.177.9375 2.2315 1.499 2.974.674a1.50456 1.50456 0 0 0-.181-2.305c-3.369-3.457-8.9645-9.492-12.1045-14.2185-1.001-1.5625-1.279-2.4855-.6395-2.91.703-.464 1.211.3465 1.6505.9615 6.1085 8.6185 8.54 11.4945 10.41 13.101 1.5335 1.3085 2.217 1.489 2.9105.7125.488-.5515.41-1.3475-.459-2.412-1.68-2.1095-6.6605-7.207-10.586-14.0525-.215-.376-.4785-1.2305.1075-1.6455.5465-.376 1.074.2195 1.357.6785a106.39826 106.39826 0 0 0 8.721 12.2655c1.03 1.084 1.6455 1.431 2.451.7815.596-.4885.381-1.3475-.117-2.1095-1.7435-2.617-9.4825-15.537-10.664-17.163-7.6955-10.4055-15.0395-5.874-18.9065-3.535-6.162 3.7155-12.412 7.817-14.785 9.868a.6255.6255 0 0 0 .0145 1.0205c1.3135 1.0695 4.45804 2.749 9.1945-.3125zM12.56746 40.94278c3.291 2.6365 1.3625 6.328-2.3045 10.659-8.6475 10.1855-9.043 13.335-9.932 16.1575-.4735 1.416-.4785 2.461.2445 2.871.8785.498 1.567-.3125 1.904-.9375a58.68294 58.68294 0 0 1 8.2275-12.49c.474-.5325 1.5185-1.895 2.3-1.2405.713.6055.215 1.216-.591 2.0995-6.8455 7.7835-9.585 14.258-10.4245 16.543-.518 1.411-.723 2.588.293 3.0325a1.5088 1.5088 0 0 0 2.1335-.889c2.2215-4.282 6.1965-11.494 9.702-15.952 1.172-1.4405 1.963-1.997 2.5685-1.5185.664.5175.049 1.255-.4005 1.865-6.2595 8.506-8.232 11.714-9.1695 13.9945-.7715 1.865-.723 2.573.2245 2.983.6835.293 1.421-.029 2.153-1.1865 1.47-2.2605 4.756-8.5885 10.0245-14.458.2835-.322 1.0205-.8395 1.6015-.4195.5275.4.127 1.0935-.2245 1.5085a103.99514 103.99514 0 0 0-8.906 12.124c-.708 1.3135-.85 2.007.0195 2.5685.6495.41 1.3965-.0585 1.9675-.7715 1.929-2.4805 11.7825-13.877 12.954-15.508 7.466-10.576.8595-16.123-2.568-19.0525-5.464-4.6975-11.3185-9.346-14.014-10.957a.6217.6217 0 0 0-.957.3415c-.60546 1.5725-1.211 5.098 3.174 8.633zM43.19246 14.84878c-1.5135 3.936-5.6155 3.223-10.8595 1.045-12.329-5.1365-15.449-4.5555-18.413-4.5455-1.489-.015-2.4855.2925-2.661 1.108-.1955.9915.781 1.3965 1.4745 1.5335a57.8541 57.8541 0 0 1 14.4045 4.033c.654.293 2.2655.869 1.875 1.8165-.352.8595-1.084.5715-2.173.073-9.497-4.15-16.499-4.785-18.9305-4.897-1.504-.0685-2.686.0975-2.803 1.201-.1075.9665.4005 1.587 1.499 1.7675 4.751.8105 12.827 2.4025 18.1495 4.385 1.7285.6735 2.495 1.2595 2.2265 1.982-.293.7865-1.1815.425-1.8995.1855-10.005-3.374-13.667-4.277-16.123-4.4775-2.007-.156-2.666.098-2.7685 1.128-.078.7325.459 1.338 1.7775 1.6895 2.6075.708 9.629 1.914 16.826 5.1415.4005.181 1.118.718.8885 1.3965-.2245.63-1.0055.4545-1.5035.249a105.27725 105.27725 0 0 0-14.258-4.7945c-1.4745-.2735-2.1775-.1955-2.4465.8005-.19.752.4835 1.3185 1.333 1.6405 2.9545 1.089 16.807 7.002 18.716 7.6175 12.3485 3.8965 15.62-4.082 17.368-8.2425 2.8125-6.6305 5.459-13.618 6.177-16.6795a.62966.62966 0 0 0-.62-.8105c-1.68-.0975-5.225.4005-7.256 5.654z" class="cls-1"/>
</svg>
