<?xml version="1.0" standalone="no"?>
<!DOCTYPE svg PUBLIC "-//W3C//DTD SVG 20010904//EN"
 "http://www.w3.org/TR/2001/REC-SVG-20010904/DTD/svg10.dtd">
<svg version="1.0" xmlns="http://www.w3.org/2000/svg"
 width="16.000000pt" height="16.000000pt" viewBox="0 0 16.000000 16.000000"
 preserveAspectRatio="xMidYMid meet">
<metadata>
Created by potrace 1.11, written by Peter Selinger 2001-2013
</metadata>
<g transform="translate(0.000000,16.000000) scale(0.002286,-0.002286)"
fill="#000000" stroke="none">
<path d="M3225 6924 c-98 -8 -342 -46 -454 -70 -1306 -281 -2344 -1319 -2625
-2625 -59 -273 -70 -390 -70 -729 0 -339 11 -456 70 -729 281 -1306 1319
-2344 2625 -2625 273 -59 390 -70 729 -70 339 0 456 11 729 70 1306 281 2344
1319 2625 2625 59 273 70 390 70 729 0 339 -11 456 -70 729 -281 1306 -1320
2344 -2625 2625 -247 54 -386 68 -679 71 -151 1 -297 1 -325 -1z m730 -302
c1005 -156 1847 -748 2325 -1632 172 -319 289 -680 347 -1065 25 -172 25 -678
0 -850 -153 -1022 -744 -1872 -1637 -2355 -319 -172 -680 -289 -1065 -347
-172 -25 -678 -25 -850 0 -1022 153 -1872 744 -2355 1637 -172 319 -289 680
-347 1065 -25 172 -25 678 0 850 128 856 560 1590 1232 2094 481 360 999 560
1620 625 22 2 166 3 320 1 221 -2 308 -7 410 -23z"/>
<path d="M2280 5719 c-369 -24 -703 -193 -856 -434 -52 -82 -52 -124 -1 -171
51 -47 98 -46 198 2 95 47 280 108 405 136 112 24 312 29 565 14 172 -10 208
-5 255 36 88 77 83 167 -14 264 -113 113 -314 168 -552 153z"/>
<path d="M4650 5718 c-229 -17 -397 -111 -435 -241 -18 -64 -13 -98 23 -146
54 -73 119 -82 434 -59 132 9 190 9 274 -1 151 -17 317 -63 469 -128 71 -30
147 -58 168 -60 103 -14 168 78 121 170 -34 66 -119 159 -202 222 -234 176
-550 267 -852 243z"/>
<path d="M2133 4889 c-284 -47 -557 -283 -647 -559 -78 -238 -54 -483 69 -692
333 -569 1180 -541 1471 47 65 133 86 224 86 375 0 144 -20 238 -77 359 -161
339 -531 532 -902 470z m270 -324 c260 -68 432 -326 387 -583 -37 -219 -219
-399 -435 -432 -307 -48 -594 199 -595 512 0 225 158 435 375 499 75 22 193
24 268 4z"/>
<path d="M2153 4320 c-98 -49 -152 -128 -161 -236 -17 -219 214 -377 412 -280
103 50 160 143 160 261 0 83 -24 141 -82 199 -56 57 -106 79 -192 83 -69 4
-80 2 -137 -27z"/>
<path d="M4665 4883 c-322 -68 -579 -320 -651 -638 -25 -110 -23 -282 5 -390
157 -603 880 -829 1361 -424 111 93 226 277 265 424 22 86 30 247 16 329 -34
194 -107 335 -245 471 -169 168 -362 246 -596 244 -47 0 -116 -7 -155 -16z
m292 -317 c92 -25 165 -68 238 -141 134 -135 182 -303 140 -484 -61 -256 -320
-431 -580 -391 -216 33 -398 213 -435 432 -44 256 125 513 383 583 67 18 188
18 254 1z"/>
<path d="M4750 4341 c-75 -23 -146 -85 -182 -160 -30 -62 -31 -167 -1 -232 48
-108 145 -172 261 -172 116 -1 208 56 264 163 30 59 33 186 4 240 -58 109
-153 171 -260 169 -34 0 -72 -4 -86 -8z"/>
<path d="M1834 1986 c-47 -21 -79 -72 -79 -127 0 -116 207 -321 457 -454 392
-207 1029 -322 1589 -287 265 17 461 56 619 122 41 18 108 46 148 63 94 39
132 75 132 125 0 46 -30 96 -72 123 -39 24 -93 22 -333 -11 -191 -27 -669 -38
-880 -21 -551 46 -978 171 -1320 387 -151 96 -194 109 -261 80z"/>
</g>
</svg>
